<svg width="40" height="40" viewBox="0 0 40 40" fill="none" xmlns="http://www.w3.org/2000/svg">
<path d="M7.75 4C7.75 2.20508 9.20508 0.75 11 0.75H27C27.1212 0.75 27.2375 0.798159 27.3232 0.883885L38.1161 11.6768C38.2018 11.7625 38.25 11.8788 38.25 12V36C38.25 37.7949 36.7949 39.25 35 39.25H11C9.20507 39.25 7.75 37.7949 7.75 36V4Z" fill="white" stroke="#E1E6EF" stroke-width="1.5"/>
<path d="M27 0.5V8C27 10.2091 28.7909 12 31 12H38.5" stroke="#E1E6EF" stroke-width="1.5"/>
<rect x="1" y="17.5" width="26" height="17" rx="2" fill="#E02E3D"/>
<path d="M6.59762 29.5H5.07762V22.52H8.37762C9.67762 22.52 10.4976 23.43 10.4976 24.75C10.4976 26.07 9.67762 26.98 8.37762 26.98H6.59762V29.5ZM6.59762 23.84V25.66H8.19762C8.64762 25.66 8.92762 25.42 8.92762 24.97V24.53C8.92762 24.08 8.64762 23.84 8.19762 23.84H6.59762ZM11.6401 29.5V22.52H14.2701C16.1201 22.52 17.3401 23.69 17.3401 26.01C17.3401 28.33 16.1201 29.5 14.2701 29.5H11.6401ZM13.1601 28.15H14.2701C15.1701 28.15 15.7301 27.66 15.7301 26.55V25.47C15.7301 24.36 15.1701 23.87 14.2701 23.87H13.1601V28.15ZM20.1328 29.5H18.6128V22.52H23.2428V23.87H20.1328V25.3H22.7828V26.64H20.1328V29.5Z" fill="white"/>
</svg>
