<svg width="61" height="60" viewBox="0 0 61 60" fill="none" xmlns="http://www.w3.org/2000/svg">
<path d="M50.5538 34.725C50.2559 34.3673 49.8385 34.1297 49.3788 34.0562C48.9192 33.9826 48.4485 34.0781 48.0538 34.325L30.5538 47.175V47.725C30.8063 47.6951 31.0623 47.719 31.3049 47.7952C31.5474 47.8713 31.7711 47.998 31.9612 48.1669C32.1512 48.3358 32.3034 48.543 32.4076 48.7749C32.5117 49.0069 32.5656 49.2582 32.5656 49.5125C32.5656 49.7667 32.5117 50.0181 32.4076 50.25C32.3034 50.482 32.1512 50.6892 31.9612 50.8581C31.7711 51.0269 31.5474 51.1536 31.3049 51.2298C31.0623 51.306 30.8063 51.3299 30.5538 51.3C30.9598 51.3018 31.3551 51.17 31.6788 50.925L50.2038 37.25C50.5648 36.9474 50.8004 36.5215 50.8651 36.0549C50.9298 35.5883 50.8189 35.1144 50.5538 34.725Z" fill="#669DF6"/>
<path d="M30.5538 51.3C30.1162 51.2481 29.7128 51.0375 29.42 50.7081C29.1273 50.3786 28.9656 49.9532 28.9656 49.5125C28.9656 49.0718 29.1273 48.6464 29.42 48.3169C29.7128 47.9874 30.1162 47.7768 30.5538 47.725V47.175L13.0538 34.325C12.6608 34.0728 12.1886 33.9741 11.7275 34.0479C11.2664 34.1217 10.8486 34.3627 10.5538 34.725C10.2903 35.1145 10.1849 35.5897 10.2592 36.0541C10.3335 36.5185 10.5819 36.9372 10.9538 37.225L29.4788 50.9C29.7948 51.1415 30.1811 51.2732 30.5788 51.275L30.5538 51.3Z" fill="#AECBFA"/>
<path d="M30.5538 45.85C29.8269 45.85 29.1164 46.0655 28.5121 46.4694C27.9077 46.8732 27.4367 47.4471 27.1585 48.1186C26.8804 48.7902 26.8076 49.5291 26.9494 50.242C27.0912 50.9548 27.4412 51.6097 27.9552 52.1236C28.4691 52.6376 29.1239 52.9876 29.8368 53.1294C30.5497 53.2712 31.2886 53.1984 31.9601 52.9203C32.6317 52.6421 33.2056 52.1711 33.6094 51.5667C34.0133 50.9624 34.2288 50.2519 34.2288 49.525C34.2288 48.5503 33.8416 47.6156 33.1524 46.9264C32.4632 46.2372 31.5285 45.85 30.5538 45.85ZM30.5538 51.3C30.1967 51.3 29.8477 51.1937 29.5512 50.9948C29.2547 50.7959 29.024 50.5133 28.8885 50.1829C28.7531 49.8526 28.7189 49.4894 28.7904 49.1395C28.8619 48.7897 29.0359 48.4691 29.2901 48.2183C29.5443 47.9676 29.8674 47.7982 30.2182 47.7316C30.569 47.665 30.9317 47.7042 31.2601 47.8443C31.5886 47.9844 31.8679 48.219 32.0627 48.5183C32.2574 48.8175 32.3587 49.168 32.3538 49.525C32.3538 49.7602 32.3071 49.9931 32.2163 50.2101C32.1256 50.4271 31.9926 50.6239 31.8251 50.789C31.6576 50.9542 31.459 51.0844 31.2407 51.1721C31.0225 51.2599 30.789 51.3033 30.5538 51.3Z" fill="#4285F4"/>
<path d="M15.5539 15.275C15.0586 15.2685 14.5855 15.0689 14.2352 14.7186C13.885 14.3684 13.6854 13.8953 13.6789 13.4V8.69998C13.6482 8.43387 13.6741 8.16428 13.755 7.9089C13.8359 7.65352 13.9698 7.41813 14.148 7.21816C14.3263 7.01819 14.5448 6.85818 14.7892 6.74861C15.0337 6.63904 15.2985 6.5824 15.5664 6.5824C15.8343 6.5824 16.0991 6.63904 16.3435 6.74861C16.588 6.85818 16.8065 7.01819 16.9847 7.21816C17.163 7.41813 17.2969 7.65352 17.3778 7.9089C17.4586 8.16428 17.4846 8.43387 17.4539 8.69998V13.4C17.4473 13.8996 17.2442 14.3764 16.8886 14.7274C16.533 15.0783 16.0535 15.275 15.5539 15.275Z" fill="#AECBFA"/>
<path d="M15.5039 31.9C16.5532 31.9 17.4039 31.0493 17.4039 30C17.4039 28.9507 16.5532 28.1 15.5039 28.1C14.4545 28.1 13.6039 28.9507 13.6039 30C13.6039 31.0493 14.4545 31.9 15.5039 31.9Z" fill="#AECBFA"/>
<path d="M15.5039 26.375C16.5532 26.375 17.4039 25.5244 17.4039 24.475C17.4039 23.4257 16.5532 22.575 15.5039 22.575C14.4545 22.575 13.6039 23.4257 13.6039 24.475C13.6039 25.5244 14.4545 26.375 15.5039 26.375Z" fill="#AECBFA"/>
<path d="M15.5039 20.825C16.5532 20.825 17.4039 19.9743 17.4039 18.925C17.4039 17.8757 16.5532 17.025 15.5039 17.025C14.4545 17.025 13.6039 17.8757 13.6039 18.925C13.6039 19.9743 14.4545 20.825 15.5039 20.825Z" fill="#AECBFA"/>
<path d="M45.5538 20.775C45.0543 20.7684 44.5774 20.5653 44.2265 20.2097C43.8755 19.8541 43.6788 19.3746 43.6788 18.875V14.175C43.6788 13.6777 43.8764 13.2008 44.228 12.8492C44.5796 12.4975 45.0566 12.3 45.5538 12.3C46.0511 12.3 46.528 12.4975 46.8797 12.8492C47.2313 13.2008 47.4288 13.6777 47.4288 14.175V18.875C47.4321 19.1233 47.3861 19.3698 47.2933 19.6002C47.2006 19.8306 47.063 20.0402 46.8886 20.217C46.7141 20.3938 46.5063 20.5341 46.2772 20.6299C46.0481 20.7257 45.8022 20.775 45.5538 20.775Z" fill="#4285F4"/>
<path d="M45.6039 31.925C46.6532 31.925 47.5039 31.0743 47.5039 30.025C47.5039 28.9757 46.6532 28.125 45.6039 28.125C44.5545 28.125 43.7039 28.9757 43.7039 30.025C43.7039 31.0743 44.5545 31.925 45.6039 31.925Z" fill="#4285F4"/>
<path d="M45.6039 26.3C46.6532 26.3 47.5039 25.4493 47.5039 24.4C47.5039 23.3507 46.6532 22.5 45.6039 22.5C44.5545 22.5 43.7039 23.3507 43.7039 24.4C43.7039 25.4493 44.5545 26.3 45.6039 26.3Z" fill="#4285F4"/>
<path d="M45.6039 10.6C46.6532 10.6 47.5039 9.74933 47.5039 8.69999C47.5039 7.65065 46.6532 6.79999 45.6039 6.79999C44.5545 6.79999 43.7039 7.65065 43.7039 8.69999C43.7039 9.74933 44.5545 10.6 45.6039 10.6Z" fill="#4285F4"/>
<path d="M30.5538 37.5C30.0586 37.4935 29.5854 37.2939 29.2352 36.9437C28.8849 36.5934 28.6853 36.1203 28.6788 35.625V30.85C28.7322 30.3868 28.9541 29.9595 29.3021 29.6492C29.6501 29.339 30.1001 29.1676 30.5663 29.1676C31.0326 29.1676 31.4825 29.339 31.8306 29.6492C32.1786 29.9595 32.4004 30.3868 32.4538 30.85V35.575C32.4571 35.8266 32.4104 36.0764 32.3164 36.3098C32.2224 36.5432 32.083 36.7556 31.9063 36.9347C31.7295 37.1138 31.5189 37.256 31.2868 37.353C31.0546 37.45 30.8055 37.5 30.5538 37.5Z" fill="#669DF6"/>
<path d="M30.5538 43.025C31.6032 43.025 32.4538 42.1744 32.4538 41.125C32.4538 40.0757 31.6032 39.225 30.5538 39.225C29.5045 39.225 28.6538 40.0757 28.6538 41.125C28.6538 42.1744 29.5045 43.025 30.5538 43.025Z" fill="#669DF6"/>
<path d="M30.5538 27.25C31.6032 27.25 32.4538 26.3994 32.4538 25.35C32.4538 24.3007 31.6032 23.45 30.5538 23.45C29.5045 23.45 28.6538 24.3007 28.6538 25.35C28.6538 26.3994 29.5045 27.25 30.5538 27.25Z" fill="#669DF6"/>
<path d="M30.5538 21.7C31.6032 21.7 32.4538 20.8493 32.4538 19.8C32.4538 18.7507 31.6032 17.9 30.5538 17.9C29.5045 17.9 28.6538 18.7507 28.6538 19.8C28.6538 20.8493 29.5045 21.7 30.5538 21.7Z" fill="#669DF6"/>
<path d="M38.0539 26.35C37.5586 26.3435 37.0855 26.1439 36.7352 25.7937C36.385 25.4434 36.1854 24.9703 36.1789 24.475V19.775C36.1482 19.5089 36.1741 19.2393 36.255 18.9839C36.3359 18.7285 36.4698 18.4931 36.648 18.2932C36.8263 18.0932 37.0448 17.9332 37.2892 17.8236C37.5337 17.7141 37.7985 17.6574 38.0664 17.6574C38.3343 17.6574 38.5991 17.7141 38.8435 17.8236C39.088 17.9332 39.3065 18.0932 39.4847 18.2932C39.663 18.4931 39.7969 18.7285 39.8778 18.9839C39.9586 19.2393 39.9846 19.5089 39.9539 19.775V24.475C39.9473 24.9746 39.7442 25.4514 39.3886 25.8024C39.033 26.1533 38.5535 26.35 38.0539 26.35Z" fill="#4285F4"/>
<path d="M38.0788 16.125C39.1282 16.125 39.9788 15.2744 39.9788 14.225C39.9788 13.1757 39.1282 12.325 38.0788 12.325C37.0295 12.325 36.1788 13.1757 36.1788 14.225C36.1788 15.2744 37.0295 16.125 38.0788 16.125Z" fill="#4285F4"/>
<path d="M38.0788 37.375C39.1282 37.375 39.9788 36.5244 39.9788 35.475C39.9788 34.4257 39.1282 33.575 38.0788 33.575C37.0295 33.575 36.1788 34.4257 36.1788 35.475C36.1788 36.5244 37.0295 37.375 38.0788 37.375Z" fill="#4285F4"/>
<path d="M38.0788 31.825C39.1282 31.825 39.9788 30.9743 39.9788 29.925C39.9788 28.8757 39.1282 28.025 38.0788 28.025C37.0295 28.025 36.1788 28.8757 36.1788 29.925C36.1788 30.9743 37.0295 31.825 38.0788 31.825Z" fill="#4285F4"/>
<path d="M23.0288 37.375C24.0781 37.375 24.9288 36.5244 24.9288 35.475C24.9288 34.4257 24.0781 33.575 23.0288 33.575C21.9794 33.575 21.1288 34.4257 21.1288 35.475C21.1288 36.5244 21.9794 37.375 23.0288 37.375Z" fill="#AECBFA"/>
<path d="M23.0288 21.7C24.0781 21.7 24.9288 20.8493 24.9288 19.8C24.9288 18.7507 24.0781 17.9 23.0288 17.9C21.9794 17.9 21.1288 18.7507 21.1288 19.8C21.1288 20.8493 21.9794 21.7 23.0288 21.7Z" fill="#AECBFA"/>
<path d="M23.0288 16.125C24.0781 16.125 24.9288 15.2744 24.9288 14.225C24.9288 13.1757 24.0781 12.325 23.0288 12.325C21.9794 12.325 21.1288 13.1757 21.1288 14.225C21.1288 15.2744 21.9794 16.125 23.0288 16.125Z" fill="#AECBFA"/>
<path d="M23.0538 31.825C22.5626 31.8254 22.0904 31.6355 21.7361 31.2953C21.3819 30.955 21.1732 30.4908 21.1538 30V25.25C21.1538 24.7527 21.3514 24.2758 21.703 23.9242C22.0546 23.5725 22.5315 23.375 23.0288 23.375C23.5261 23.375 24.003 23.5725 24.3546 23.9242C24.7063 24.2758 24.9038 24.7527 24.9038 25.25V30C24.8909 30.4843 24.6911 30.9448 24.3462 31.285C24.0014 31.6252 23.5382 31.8187 23.0538 31.825Z" fill="#AECBFA"/>
</svg>
