<svg width="150" height="30" viewBox="0 0 150 30" fill="none" xmlns="http://www.w3.org/2000/svg">
<mask id="mask0_2038_235" style="mask-type:luminance" maskUnits="userSpaceOnUse" x="1" y="0" width="148" height="30">
<path d="M148.636 0H1.36316V30H148.636V0Z" fill="white"/>
</mask>
<g mask="url(#mask0_2038_235)">
<path d="M20.7752 29.2909L19.6752 25.8262H9.52526L8.42476 29.2909H1.37598L11.5656 0.761475H17.6387L27.9506 29.2909H20.7752ZM14.6227 8.91164L11.1173 20.6501H18.0464L14.6227 8.91164Z" fill="#1F2127"/>
<path d="M28.7356 0.76123H35.4198V29.2907H28.7356V0.76123Z" fill="#1F2127"/>
<path d="M37.2216 23.4621C37.5218 22.0535 38.0519 20.704 38.7908 19.4679C39.4334 18.4231 40.2384 17.4876 41.1754 16.6963C42.1326 15.9023 43.1475 15.1804 44.2116 14.5368C45.0536 14.0473 45.8348 13.5784 46.5553 13.1304C47.2196 12.7225 47.8531 12.2662 48.4505 11.7651C48.9664 11.3364 49.4013 10.8187 49.7345 10.2366C50.0528 9.65627 50.2143 9.00309 50.2031 8.34136C50.2031 7.20025 49.8908 6.37833 49.2659 5.87559C48.6033 5.36063 47.7814 5.09383 46.9426 5.12146C45.9881 5.0926 45.0599 5.43615 44.3543 6.07945C43.6614 6.7181 43.315 7.78463 43.315 9.27904H36.7526C36.7409 8.03761 36.9694 6.80565 37.4255 5.65099C37.8629 4.55249 38.5379 3.5643 39.4019 2.75719C40.3221 1.91145 41.4035 1.25995 42.5813 0.841662C43.9686 0.357057 45.431 0.122348 46.9003 0.148444C48.1613 0.142623 49.4168 0.314188 50.6299 0.658099C51.7583 0.971282 52.8165 1.49696 53.7479 2.20694C54.6629 2.92258 55.396 3.84424 55.8875 4.89688C56.4428 6.11774 56.7145 7.44845 56.6823 8.78925C56.6969 9.92345 56.4309 11.0437 55.9078 12.0502C55.4069 13.0075 54.7684 13.8862 54.0126 14.6585C53.2746 15.4114 52.4623 16.0875 51.5879 16.6764C50.7174 17.2609 49.9293 17.7568 49.2235 18.1639C48.2446 18.8161 47.4361 19.38 46.7984 19.8556C46.2511 20.2514 45.7398 20.6945 45.2703 21.1799C44.919 21.5402 44.648 21.971 44.4751 22.4436C44.3178 22.9305 44.242 23.44 44.251 23.9515H56.4788V29.2908H36.6714C36.6365 27.3334 36.821 25.3784 37.2216 23.4621Z" fill="#1F2127"/>
<path d="M57.7418 5.77149C58.8839 5.79476 60.0252 5.69221 61.1449 5.4657C61.8928 5.3237 62.5976 5.00979 63.2034 4.54875C63.6896 4.14538 64.0443 3.60609 64.2223 2.99991C64.4259 2.27059 64.5221 1.5154 64.5073 0.758301H70.3381V29.2908H63.6133V10.4193H57.7418V5.77149Z" fill="#1F2127"/>
<path d="M77.9012 0.761475H84.1364V29.2909H77.9012V0.761475Z" fill="#E91E63"/>
<path d="M107.161 9.63017V29.276H100.925V26.5036C100.669 26.9808 100.339 27.4141 99.9467 27.7873C99.5274 28.1901 99.0543 28.533 98.5408 28.8061C97.9903 29.0989 97.4093 29.3305 96.8084 29.4973C96.1987 29.6714 95.5677 29.7605 94.9335 29.762C93.5943 29.7773 92.2673 29.5063 91.0412 28.9673C89.8925 28.4616 88.8594 27.7268 88.0048 26.8076C87.1412 25.8624 86.4759 24.7536 86.0483 23.5468C85.1245 20.894 85.1245 18.007 86.0483 15.3543C86.4759 14.1474 87.1412 13.0386 88.0048 12.0934C88.8594 11.1743 89.8925 10.4394 91.0412 9.93379C92.2677 9.39523 93.595 9.12487 94.9344 9.1408C95.5685 9.14228 96.1995 9.23137 96.8093 9.40557C97.413 9.57383 97.9947 9.81335 98.5417 10.1191C99.0564 10.4065 99.5294 10.763 99.9475 11.1786C100.33 11.5532 100.659 11.9782 100.926 12.4419V9.63017H107.161ZM96.2379 24.4663C96.8989 24.4764 97.5537 24.3371 98.1534 24.059C98.709 23.799 99.208 23.432 99.6219 22.9793C100.039 22.5149 100.364 21.9754 100.58 21.3894C100.812 20.7705 100.929 20.1145 100.925 19.4535C100.935 18.1648 100.471 16.9173 99.621 15.9481C99.2117 15.4851 98.7119 15.1106 98.1525 14.8476C97.5497 14.5791 96.897 14.4404 96.237 14.4404C95.577 14.4404 94.9244 14.5791 94.3215 14.8476C93.7623 15.1108 93.2625 15.4853 92.853 15.9481C92.0038 16.9175 91.5398 18.1649 91.549 19.4535C91.5452 20.1145 91.6623 20.7706 91.8947 21.3894C92.11 21.9753 92.4349 22.5149 92.8522 22.9793C93.2662 23.4319 93.7652 23.7988 94.3207 24.059C94.9209 24.3375 95.5763 24.4768 96.2379 24.4663Z" fill="#E91E63"/>
<path d="M114.738 29.2912H108.502V0.761719H114.738V12.4574C115.006 11.9938 115.335 11.5687 115.717 11.1941C116.139 10.775 116.619 10.4183 117.142 10.1346C117.691 9.83342 118.272 9.59411 118.874 9.42111C119.491 9.24408 120.129 9.15494 120.77 9.15634C122.109 9.14111 123.436 9.41206 124.662 9.95106C125.811 10.4568 126.844 11.1916 127.698 12.1106C128.562 13.0561 129.227 14.1648 129.656 15.3716C130.578 18.0243 130.578 20.9113 129.656 23.5641C129.227 24.7707 128.562 25.8796 127.698 26.8249C126.844 27.7439 125.811 28.4788 124.662 28.9846C123.436 29.5236 122.109 29.7944 120.77 29.7792C120.129 29.7807 119.491 29.6916 118.874 29.5144C118.275 29.3432 117.695 29.1117 117.142 28.8234C116.621 28.5539 116.141 28.2108 115.717 27.8046C115.325 27.4313 114.994 26.9981 114.738 26.5209V29.2912ZM119.467 24.4814C120.114 24.4886 120.755 24.3494 121.342 24.0742C121.897 23.8141 122.396 23.4472 122.81 22.9943C123.227 22.5301 123.553 21.9904 123.768 21.4044C124 20.7856 124.117 20.1296 124.114 19.4687C124.123 18.1798 123.659 16.9324 122.809 15.9633C122.4 15.5003 121.9 15.1258 121.341 14.8628C120.755 14.5873 120.114 14.4473 119.467 14.4533C118.799 14.4451 118.138 14.5842 117.531 14.8606C116.964 15.1197 116.457 15.4946 116.043 15.9611C115.194 16.9303 114.729 18.1777 114.739 19.4664C114.735 20.1274 114.852 20.7834 115.084 21.4023C115.3 21.9884 115.625 22.5281 116.042 22.9922C116.461 23.4484 116.967 23.8157 117.53 24.0719C118.137 24.3497 118.799 24.4896 119.467 24.4814Z" fill="#E91E63"/>
<path d="M142.066 17.7151C142.934 17.9596 143.749 18.2245 144.511 18.5099C145.222 18.769 145.894 19.1257 146.508 19.5697C147.073 19.9856 147.539 20.5215 147.873 21.1389C148.237 21.8721 148.412 22.6846 148.383 23.5027C148.417 24.5317 148.177 25.5512 147.689 26.4579C147.226 27.2612 146.567 27.9342 145.774 28.4145C144.902 28.9395 143.942 29.3051 142.942 29.4942C141.807 29.717 140.653 29.8261 139.497 29.8199C136.698 29.8199 134.491 29.2086 132.874 27.986C131.257 26.7632 130.776 25.0106 130.776 22.7279H136.563C136.563 23.7611 136.856 24.5015 137.439 24.9492C138.097 25.4205 138.893 25.6572 139.702 25.6217C140.347 25.6495 140.988 25.5017 141.556 25.1941C141.793 25.048 141.984 24.8395 142.111 24.5914C142.236 24.3432 142.291 24.0651 142.269 23.7879C142.286 23.4547 142.177 23.1277 141.963 22.8709C141.697 22.5947 141.378 22.3732 141.026 22.2187C140.498 21.9746 139.953 21.7702 139.396 21.6071C138.729 21.4032 137.934 21.152 137.012 20.8534C136.197 20.6086 135.422 20.3437 134.688 20.0587C134.001 19.7981 133.349 19.4486 132.752 19.0191C132.196 18.613 131.743 18.0826 131.428 17.4702C131.077 16.7329 130.909 15.922 130.938 15.106C130.938 13.0682 131.719 11.5603 133.282 10.5822C134.844 9.60403 136.957 9.11453 139.619 9.11367C140.882 9.09256 142.139 9.26443 143.349 9.62332C144.318 9.90737 145.219 10.3857 145.998 11.0292C146.677 11.6069 147.213 12.332 147.568 13.149C147.922 13.9725 148.103 14.8606 148.098 15.7574H141.943C141.987 15.0676 141.759 14.388 141.312 13.8621C141.053 13.6216 140.748 13.4375 140.414 13.3217C140.081 13.206 139.727 13.161 139.376 13.1896C138.802 13.1756 138.237 13.324 137.746 13.6176C137.519 13.7544 137.337 13.95 137.214 14.1835C137.092 14.4169 137.036 14.6792 137.052 14.9422C137.041 15.266 137.158 15.5811 137.378 15.8186C137.653 16.0891 137.979 16.3037 138.336 16.4505C138.847 16.6736 139.371 16.8641 139.906 17.0211C140.529 17.2126 141.249 17.4439 142.066 17.7151Z" fill="#E91E63"/>
</g>
</svg>
